<mxfile host="app.diagrams.net" modified="2021-10-12T08:23:09.302Z" agent="5.0 (Windows NT 10.0; Win64; x64) AppleWebKit/537.36 (KHTML, like Gecko) Chrome/94.0.4606.71 Safari/537.36" etag="_OxA5br-M8l6VVq6LAsQ" version="15.4.3" type="github">
  <diagram id="p2q9YtW9ZhbQxPiLJNjh" name="Page-1">
    <mxGraphModel dx="1221" dy="644" grid="1" gridSize="10" guides="1" tooltips="1" connect="1" arrows="1" fold="1" page="1" pageScale="1" pageWidth="827" pageHeight="1169" math="0" shadow="0">
      <root>
        <mxCell id="0" />
        <mxCell id="1" parent="0" />
        <mxCell id="_p9DGE9gg8uyNRXukZC8-1" value="MandMDirect Functional Flow" style="shape=umlFrame;whiteSpace=wrap;html=1;width=130;height=30;" vertex="1" parent="1">
          <mxGeometry x="90" y="120" width="650" height="380" as="geometry" />
        </mxCell>
        <mxCell id="_p9DGE9gg8uyNRXukZC8-7" value="Buy Item" style="edgeStyle=none;rounded=0;orthogonalLoop=1;jettySize=auto;html=1;exitX=0.595;exitY=0.034;exitDx=0;exitDy=0;entryX=0.029;entryY=0.643;entryDx=0;entryDy=0;entryPerimeter=0;exitPerimeter=0;" edge="1" parent="1" source="_p9DGE9gg8uyNRXukZC8-2" target="_p9DGE9gg8uyNRXukZC8-5">
          <mxGeometry relative="1" as="geometry" />
        </mxCell>
        <mxCell id="_p9DGE9gg8uyNRXukZC8-14" value="Make Complaint" style="edgeStyle=none;rounded=0;orthogonalLoop=1;jettySize=auto;html=1;exitX=1;exitY=0;exitDx=0;exitDy=0;entryX=0;entryY=0.5;entryDx=0;entryDy=0;" edge="1" parent="1" source="_p9DGE9gg8uyNRXukZC8-2" target="_p9DGE9gg8uyNRXukZC8-13">
          <mxGeometry relative="1" as="geometry" />
        </mxCell>
        <mxCell id="_p9DGE9gg8uyNRXukZC8-2" value="Customer" style="ellipse;whiteSpace=wrap;html=1;" vertex="1" parent="1">
          <mxGeometry x="130" y="380" width="140" height="70" as="geometry" />
        </mxCell>
        <mxCell id="_p9DGE9gg8uyNRXukZC8-9" value="Input Payment Details" style="edgeStyle=none;rounded=0;orthogonalLoop=1;jettySize=auto;html=1;exitX=0.999;exitY=0.37;exitDx=0;exitDy=0;entryX=-0.006;entryY=0.303;entryDx=0;entryDy=0;entryPerimeter=0;exitPerimeter=0;" edge="1" parent="1" source="_p9DGE9gg8uyNRXukZC8-2" target="_p9DGE9gg8uyNRXukZC8-3">
          <mxGeometry relative="1" as="geometry" />
        </mxCell>
        <mxCell id="_p9DGE9gg8uyNRXukZC8-10" value="Issue Payment &lt;br&gt;from Customer" style="edgeStyle=none;rounded=0;orthogonalLoop=1;jettySize=auto;html=1;exitX=1;exitY=0;exitDx=0;exitDy=0;entryX=1;entryY=0.5;entryDx=0;entryDy=0;" edge="1" parent="1" source="_p9DGE9gg8uyNRXukZC8-3" target="_p9DGE9gg8uyNRXukZC8-5">
          <mxGeometry x="-0.3948" y="-17" relative="1" as="geometry">
            <mxPoint as="offset" />
          </mxGeometry>
        </mxCell>
        <mxCell id="_p9DGE9gg8uyNRXukZC8-24" value="Make Refund" style="edgeStyle=none;rounded=0;orthogonalLoop=1;jettySize=auto;html=1;exitX=0;exitY=1;exitDx=0;exitDy=0;entryX=1;entryY=1;entryDx=0;entryDy=0;" edge="1" parent="1" source="_p9DGE9gg8uyNRXukZC8-3" target="_p9DGE9gg8uyNRXukZC8-2">
          <mxGeometry relative="1" as="geometry" />
        </mxCell>
        <mxCell id="_p9DGE9gg8uyNRXukZC8-3" value="Payment Company" style="ellipse;whiteSpace=wrap;html=1;" vertex="1" parent="1">
          <mxGeometry x="570" y="380" width="140" height="70" as="geometry" />
        </mxCell>
        <mxCell id="_p9DGE9gg8uyNRXukZC8-12" value="Deliver Goods" style="edgeStyle=none;rounded=0;orthogonalLoop=1;jettySize=auto;html=1;exitX=0.5;exitY=1;exitDx=0;exitDy=0;entryX=0.5;entryY=0;entryDx=0;entryDy=0;" edge="1" parent="1" source="_p9DGE9gg8uyNRXukZC8-4" target="_p9DGE9gg8uyNRXukZC8-2">
          <mxGeometry relative="1" as="geometry" />
        </mxCell>
        <mxCell id="_p9DGE9gg8uyNRXukZC8-4" value="Distribution Department" style="ellipse;whiteSpace=wrap;html=1;" vertex="1" parent="1">
          <mxGeometry x="130" y="160" width="140" height="70" as="geometry" />
        </mxCell>
        <mxCell id="_p9DGE9gg8uyNRXukZC8-8" value="Await payment &lt;br&gt;authorisation" style="edgeStyle=none;rounded=0;orthogonalLoop=1;jettySize=auto;html=1;exitX=1;exitY=1;exitDx=0;exitDy=0;" edge="1" parent="1" source="_p9DGE9gg8uyNRXukZC8-5" target="_p9DGE9gg8uyNRXukZC8-3">
          <mxGeometry x="-0.1173" y="2" relative="1" as="geometry">
            <mxPoint as="offset" />
          </mxGeometry>
        </mxCell>
        <mxCell id="_p9DGE9gg8uyNRXukZC8-11" value="Assign Delivery &lt;br&gt;Goods and Details" style="edgeStyle=none;rounded=0;orthogonalLoop=1;jettySize=auto;html=1;exitX=0;exitY=0.5;exitDx=0;exitDy=0;" edge="1" parent="1" source="_p9DGE9gg8uyNRXukZC8-5" target="_p9DGE9gg8uyNRXukZC8-4">
          <mxGeometry relative="1" as="geometry" />
        </mxCell>
        <mxCell id="_p9DGE9gg8uyNRXukZC8-22" style="edgeStyle=none;rounded=0;orthogonalLoop=1;jettySize=auto;html=1;exitX=0.5;exitY=1;exitDx=0;exitDy=0;entryX=0.216;entryY=0.143;entryDx=0;entryDy=0;entryPerimeter=0;" edge="1" parent="1" source="_p9DGE9gg8uyNRXukZC8-5" target="_p9DGE9gg8uyNRXukZC8-3">
          <mxGeometry relative="1" as="geometry" />
        </mxCell>
        <mxCell id="_p9DGE9gg8uyNRXukZC8-23" value="Issue Refund" style="edgeLabel;html=1;align=center;verticalAlign=middle;resizable=0;points=[];" vertex="1" connectable="0" parent="_p9DGE9gg8uyNRXukZC8-22">
          <mxGeometry x="0.3591" y="2" relative="1" as="geometry">
            <mxPoint as="offset" />
          </mxGeometry>
        </mxCell>
        <mxCell id="_p9DGE9gg8uyNRXukZC8-5" value="MandM Direct" style="ellipse;whiteSpace=wrap;html=1;" vertex="1" parent="1">
          <mxGeometry x="530" y="150" width="140" height="70" as="geometry" />
        </mxCell>
        <mxCell id="_p9DGE9gg8uyNRXukZC8-15" value="Accept/Reject Complaint" style="edgeStyle=none;rounded=0;orthogonalLoop=1;jettySize=auto;html=1;exitX=0;exitY=1;exitDx=0;exitDy=0;" edge="1" parent="1" source="_p9DGE9gg8uyNRXukZC8-13" target="_p9DGE9gg8uyNRXukZC8-2">
          <mxGeometry x="-0.1912" y="15" relative="1" as="geometry">
            <mxPoint as="offset" />
          </mxGeometry>
        </mxCell>
        <mxCell id="_p9DGE9gg8uyNRXukZC8-16" value="Send &lt;br&gt;Accepted Complaint" style="edgeStyle=none;rounded=0;orthogonalLoop=1;jettySize=auto;html=1;exitX=0.784;exitY=0.114;exitDx=0;exitDy=0;exitPerimeter=0;" edge="1" parent="1" source="_p9DGE9gg8uyNRXukZC8-13" target="_p9DGE9gg8uyNRXukZC8-5">
          <mxGeometry relative="1" as="geometry" />
        </mxCell>
        <mxCell id="_p9DGE9gg8uyNRXukZC8-13" value="Customer Support" style="ellipse;whiteSpace=wrap;html=1;" vertex="1" parent="1">
          <mxGeometry x="413" y="280" width="140" height="70" as="geometry" />
        </mxCell>
      </root>
    </mxGraphModel>
  </diagram>
</mxfile>
